<svg xmlns="http://www.w3.org/2000/svg" xmlns:xlink="http://www.w3.org/1999/xlink" version="1.0" x="0" y="0" width="2400" height="2400" viewBox="133.7272615814209 88.7272615814209 72.54548446655274 72.54548446655274" preserveAspectRatio="xMidYMid meet" color-interpolation-filters="sRGB"><g><defs><linearGradient id="92" x1="0%" y1="0%" x2="100%" y2="0%"><stop offset="0%" stop-color="#fa71cd"></stop> <stop offset="100%" stop-color="#9b59b6"></stop></linearGradient><linearGradient id="93" x1="0%" y1="0%" x2="100%" y2="0%"><stop offset="0%" stop-color="#f9d423"></stop> <stop offset="100%" stop-color="#f83600"></stop></linearGradient><linearGradient id="94" x1="0%" y1="0%" x2="100%" y2="0%"><stop offset="0%" stop-color="#0064d2"></stop> <stop offset="100%" stop-color="#1cb0f6"></stop></linearGradient><linearGradient id="95" x1="0%" y1="0%" x2="100%" y2="0%"><stop offset="0%" stop-color="#f00978"></stop> <stop offset="100%" stop-color="#3f51b1"></stop></linearGradient><linearGradient id="96" x1="0%" y1="0%" x2="100%" y2="0%"><stop offset="0%" stop-color="#7873f5"></stop> <stop offset="100%" stop-color="#ec77ab"></stop></linearGradient><linearGradient id="97" x1="0%" y1="0%" x2="100%" y2="0%"><stop offset="0%" stop-color="#f9d423"></stop> <stop offset="100%" stop-color="#e14fad"></stop></linearGradient><linearGradient id="98" x1="0%" y1="0%" x2="100%" y2="0%"><stop offset="0%" stop-color="#009efd"></stop> <stop offset="100%" stop-color="#2af598"></stop></linearGradient><linearGradient id="99" x1="0%" y1="0%" x2="100%" y2="0%"><stop offset="0%" stop-color="#ffcc00"></stop> <stop offset="100%" stop-color="#00b140"></stop></linearGradient><linearGradient id="100" x1="0%" y1="0%" x2="100%" y2="0%"><stop offset="0%" stop-color="#d51007"></stop> <stop offset="100%" stop-color="#ff8177"></stop></linearGradient><linearGradient id="102" x1="0%" y1="0%" x2="100%" y2="0%"><stop offset="0%" stop-color="#a2b6df"></stop> <stop offset="100%" stop-color="#0c3483"></stop></linearGradient><linearGradient id="103" x1="0%" y1="0%" x2="100%" y2="0%"><stop offset="0%" stop-color="#7ac5d8"></stop> <stop offset="100%" stop-color="#eea2a2"></stop></linearGradient><linearGradient id="104" x1="0%" y1="0%" x2="100%" y2="0%"><stop offset="0%" stop-color="#00ecbc"></stop> <stop offset="100%" stop-color="#007adf"></stop></linearGradient><linearGradient id="105" x1="0%" y1="0%" x2="100%" y2="0%"><stop offset="0%" stop-color="#b88746"></stop> <stop offset="100%" stop-color="#fdf5a6"></stop></linearGradient></defs><g fill="#144579" class="iconsvg-imagesvg" transform="translate(134.4384880065918,89.43848966375015)"><rect fill="#144579" fill-opacity="0" stroke-width="2" x="0" y="0" width="71.12302221305983" height="71.12302221305983" class="image-rect"></rect> <svg viewBox="0 0 60 60" x="0" y="0" width="71.12302221305983" height="71.12302221305983" class="image-svg-svg bn" style="overflow: visible;"><g hollow-target="iconBnFill" mask="url(#998ba4a5-c6aa-4bba-bdbc-bb76d609844c)"><g><svg xmlns="http://www.w3.org/2000/svg" viewBox="-0.00999 -0.00001 126.33999 126.34001" style="overflow: visible;" width="60" height="60" x="0" y="0" filtersec="colorsb3257942156" filter="url(#VEZCknjAVMYES6r0KaT9x)"><g transform="scale(1, 1) skewX(0)"><path d="M63.2 0a63.17 63.17 0 1 0 63.13 63.2A63.17 63.17 0 0 0 63.2 0zM43.12 14.73c-.79.34-1.53.78-2.29 1.17l-2.29 1.16c-1.47.87-2.89 1.83-4.34 2.73l-4.08 3.09-3.77 3.45-3.46 3.77-3.09 4.08c-.9 1.44-1.8 2.82-2.73 4.33s-1.59 3-2.33 4.58a62 62 0 0 0-5.2 20 47.5 47.5 0 0 1 3-21c.66-1.67 1.43-3.29 2.18-4.93s1.79-3.12 2.69-4.68 2.12-2.91 3.18-4.36l3.6-4 4-3.61c1.46-1.06 2.88-2.16 4.37-3.18s3.1-1.83 4.68-2.68 3.26-1.52 4.92-2.17a47.27 47.27 0 0 1 21-3 62.25 62.25 0 0 0-20.04 5.25zm68.48 74.36c-.85 1.58-1.79 3.12-2.69 4.68s-2.12 2.91-3.19 4.36l-3.6 4-4 3.61c-1.32 1.19-2.88 2.17-4.36 3.18s-3.1 1.84-4.69 2.68-3.26 1.53-4.93 2.17a47.41 47.41 0 0 1-21 3 62.29 62.29 0 0 0 20.06-5.18c.79-.33 1.53-.78 2.29-1.17l2.29-1.16c1.47-.87 2.89-1.83 4.34-2.73l4.08-3.08L100 100l3.46-3.77 3.09-4.08c.9-1.44 1.86-2.86 2.73-4.33s1.6-3 2.34-4.58a62.32 62.32 0 0 0 5.2-20 47.55 47.55 0 0 1-3 21c-.7 1.59-1.48 3.21-2.22 4.85z" fill="#000000"></path></g><defs><filter id="VEZCknjAVMYES6r0KaT9x"><feColorMatrix type="matrix" values="0 0 0 0 0.078125  0 0 0 0 0.26953125  0 0 0 0 0.47265625  0 0 0 1 0"></feColorMatrix></filter></defs></svg></g> <g><svg xmlns="http://www.w3.org/2000/svg" viewBox="0.0005516409873962402 0 107.36103820800781 138.3300018310547" width="40" height="40" x="10" y="10" class="image-svg-icon"><g fill-rule="evenodd"><path d="M66.09 0C82.27 57-2.79 49.12 16.14 107.33-37.5 54.34 59.17 32.84 66.09 0z" fill="#ac2929"></path><path d="M36.49 123.4C-.09 85 30.16 67 57.65 50.28 60.44 87 21.51 72.82 36.49 123.4z" fill="#144579"></path><path d="M105.3 31c16.19 57-68.88 49.12-49.95 107.33C1.71 85.29 98.38 63.8 105.3 31z" fill="#ac2929"></path></g></svg></g></g><mask id="998ba4a5-c6aa-4bba-bdbc-bb76d609844c"><g fill="white"><svg xmlns="http://www.w3.org/2000/svg" viewBox="-0.00999 -0.00001 126.33999 126.34001" style="overflow: visible;" width="60" height="60" x="0" y="0" filtersec="colorsb3257942156"><g transform="scale(1, 1) skewX(0)"><path d="M63.2 0a63.17 63.17 0 1 0 63.13 63.2A63.17 63.17 0 0 0 63.2 0zM43.12 14.73c-.79.34-1.53.78-2.29 1.17l-2.29 1.16c-1.47.87-2.89 1.83-4.34 2.73l-4.08 3.09-3.77 3.45-3.46 3.77-3.09 4.08c-.9 1.44-1.8 2.82-2.73 4.33s-1.59 3-2.33 4.58a62 62 0 0 0-5.2 20 47.5 47.5 0 0 1 3-21c.66-1.67 1.43-3.29 2.18-4.93s1.79-3.12 2.69-4.68 2.12-2.91 3.18-4.36l3.6-4 4-3.61c1.46-1.06 2.88-2.16 4.37-3.18s3.1-1.83 4.68-2.68 3.26-1.52 4.92-2.17a47.27 47.27 0 0 1 21-3 62.25 62.25 0 0 0-20.04 5.25zm68.48 74.36c-.85 1.58-1.79 3.12-2.69 4.68s-2.12 2.91-3.19 4.36l-3.6 4-4 3.61c-1.32 1.19-2.88 2.17-4.36 3.18s-3.1 1.84-4.69 2.68-3.26 1.53-4.93 2.17a47.41 47.41 0 0 1-21 3 62.29 62.29 0 0 0 20.06-5.18c.79-.33 1.53-.78 2.29-1.17l2.29-1.16c1.47-.87 2.89-1.83 4.34-2.73l4.08-3.08L100 100l3.46-3.77 3.09-4.08c.9-1.44 1.86-2.86 2.73-4.33s1.6-3 2.34-4.58a62.32 62.32 0 0 0 5.2-20 47.55 47.55 0 0 1-3 21c-.7 1.59-1.48 3.21-2.22 4.85z"></path></g><defs></defs></svg></g> <g fill="black"><svg xmlns="http://www.w3.org/2000/svg" viewBox="0.0005516409873962402 0 107.36103820800781 138.3300018310547" width="40" height="40" x="10" y="10" class="image-svg-icon"><g fill-rule="evenodd"><path d="M66.09 0C82.27 57-2.79 49.12 16.14 107.33-37.5 54.34 59.17 32.84 66.09 0z"></path><path d="M36.49 123.4C-.09 85 30.16 67 57.65 50.28 60.44 87 21.51 72.82 36.49 123.4z"></path><path d="M105.3 31c16.19 57-68.88 49.12-49.95 107.33C1.71 85.29 98.38 63.8 105.3 31z"></path></g></svg></g></mask></svg> </g><defs v-gra="od"></defs></g></svg>